# xmcd
#
# Track frame offsets:
#	150
#	71740
#	95723
#	156600
#	201245
#	216228
#	233208
#	241613
#	248738
#	265235
#	275570
#
# Disc length: 3797 seconds
#
# Revision: 1
# Processed by: cddbd v1.5.2PL0 Copyright (c) Steve Scherf et al.
# Submitted via: EasyCDDAExtractor 10.0.2.1
#
DISCID=a70ed30b
DTITLE=Dmitri Shostakavich and Sergei Prokofiev - Shostakovich: Symphony No. 5 &
DTITLE=Projofiev: The Love for Three Oranges - Philadelphia Orchestra - Eugene
DTITLE=Ormandy, conductor
DYEAR=1993
DGENRE=
TTITLE0=Symphony No. 5 in D Minor, Op. 47 - I. Moderato
TTITLE1=Symphony No. 5 in D Minor, Op. 47 - II. Allegretto
TTITLE2=Symphony No. 5 in D Minor, Op. 47 - III. Largo
TTITLE3=Symphony No. 5 in D Minor, Op. 47 - IV. Allegro non troppo
TTITLE4=The Love for Three Oranges - Symphonic Suite, Op. 33a - I. Ridiculous 
TTITLE4=Fellows
TTITLE5=The Love for Three Oranges - Symphonic Suite, Op. 33a - II. Magician C
TTITLE5=elio and Fata Morgana Play Cards (Infernal Scene)
TTITLE6=The Love for Three Oranges - Symphonic Suite, Op. 33a - III. March
TTITLE7=The Love for Three Oranges - Symphonic Suite, Op. 33a - IV. Scherzo
TTITLE8=The Love for Three Oranges - Symphonic Suite, Op. 33a - V. The Prince 
TTITLE8=and the Princess
TTITLE9=The Love for Three Oranges - Symphonic Suite, Op. 33a - VI. Flight
TTITLE10=The Age of Gold - Suite, Op. 22a - III. Polka
EXTD=
EXTT0=
EXTT1=
EXTT2=
EXTT3=
EXTT4=
EXTT5=
EXTT6=
EXTT7=
EXTT8=
EXTT9=
EXTT10=
PLAYORDER=
